<svg xmlns="http://www.w3.org/2000/svg" viewBox="0 0 64 64" role="img" aria-label="KS favicon">
  <defs>
    <linearGradient id="bg" x1="0%" y1="0%" x2="100%" y2="100%">
      <stop offset="0%" stop-color="#111111" />
      <stop offset="100%" stop-color="#2f2f2f" />
    </linearGradient>
    <linearGradient id="accent" x1="0%" y1="0%" x2="100%" y2="100%">
      <stop offset="0%" stop-color="#f4f1ea" />
      <stop offset="100%" stop-color="#d7c3a0" />
    </linearGradient>
  </defs>

  <rect width="64" height="64" rx="16" fill="url(#bg)" />
  <rect x="3" y="3" width="58" height="58" rx="13" fill="none" stroke="rgba(255,255,255,0.08)" />

  <path
    d="M18 14h6v18.5l16-18.5h7.7L33.8 30.1 48 50h-7.5L29.6 34.5 24 40.7V50h-6z"
    fill="url(#accent)"
  />
  <path
    d="M44.8 18.8c-2.2-1.6-4.5-2.4-7.2-2.4-3.2 0-5.4 1.4-5.4 3.7 0 2.5 2.3 3.3 6.2 4.4 5.4 1.5 10 3.4 10 9.6 0 6.6-5.4 10.4-12.5 10.4-4.5 0-8.5-1.3-11.6-3.9l3.1-4.5c2.4 2 5.3 3.1 8.7 3.1 3.4 0 5.9-1.5 5.9-4.2 0-2.5-2.2-3.4-6.7-4.7-5.1-1.5-9.5-3.3-9.5-9.2 0-6.2 5.1-10 11.9-10 4 0 7.1 1.1 9.9 3.1z"
    fill="url(#accent)"
    opacity="0.95"
  />
</svg>
